<?xml version="1.0" standalone="no"?>
<!DOCTYPE svg PUBLIC "-//W3C//DTD SVG 20010904//EN"
 "http://www.w3.org/TR/2001/REC-SVG-20010904/DTD/svg10.dtd">
<svg version="1.0" xmlns="http://www.w3.org/2000/svg"
 width="173.000000pt" height="231.000000pt" viewBox="0 0 173.000000 231.000000"
 preserveAspectRatio="xMidYMid meet">

<g transform="translate(0.000000,231.000000) scale(0.100000,-0.100000)"
fill="#000000" stroke="none">
<path d="M120 1840 l0 -370 150 0 150 0 0 -565 0 -565 255 0 255 0 0 -120 0
-120 305 0 305 0 0 305 0 305 -305 0 -305 0 0 -120 0 -120 -190 0 -190 0 0
275 0 275 190 0 190 0 0 -115 0 -115 305 0 305 0 0 300 0 300 -305 0 -305 0 0
-120 0 -120 -187 2 -188 3 0 155 0 155 153 3 152 3 0 369 0 370 -370 0 -370 0
0 -370z m610 0 l0 -240 -240 0 -240 0 0 240 0 240 240 0 240 0 0 -240z m680
-750 l0 -170 -175 0 -175 0 0 170 0 170 175 0 175 0 0 -170z m0 -680 l0 -170
-175 0 -175 0 0 163 c0 90 3 167 7 170 3 4 82 7 175 7 l168 0 0 -170z"/>
</g>
</svg>
