<?xml version="1.0" standalone="no"?>
<!DOCTYPE svg PUBLIC "-//W3C//DTD SVG 20010904//EN"
 "http://www.w3.org/TR/2001/REC-SVG-20010904/DTD/svg10.dtd">
<svg version="1.0" xmlns="http://www.w3.org/2000/svg"
 width="228.000000pt" height="199.000000pt" viewBox="0 0 228.000000 199.000000"
 preserveAspectRatio="xMidYMid meet">

<g transform="translate(0.000000,199.000000) scale(0.100000,-0.100000)"
fill="#000000" stroke="none">
<path d="M960 1855 c-143 -29 -306 -102 -418 -189 -142 -109 -278 -285 -330
-424 -57 -157 -73 -225 -79 -347 -8 -184 24 -337 105 -500 69 -138 185 -285
226 -285 15 0 47 25 94 74 40 41 72 78 72 83 0 17 -32 53 -47 53 -9 0 -38 -23
-64 -52 -55 -60 -55 -60 -124 37 -54 75 -109 188 -134 275 -23 77 -44 210 -35
219 3 3 34 5 68 4 52 -2 66 1 81 17 15 17 16 24 7 45 -11 23 -16 25 -88 25
l-77 0 6 64 c3 36 13 93 22 128 21 85 103 247 166 331 l52 69 51 -51 c28 -28
59 -51 67 -51 17 0 49 30 49 45 0 5 -24 33 -52 62 l-53 53 30 25 c54 45 173
116 245 146 75 32 223 68 278 69 l32 0 0 -58 c0 -63 19 -102 50 -102 31 0 50
39 50 102 l0 58 33 0 c55 -1 202 -37 282 -71 69 -28 181 -96 245 -148 l25 -20
-52 -53 c-29 -30 -53 -58 -53 -64 0 -15 34 -44 50 -44 8 0 37 23 66 51 l51 51
46 -61 c108 -145 179 -322 193 -483 l4 -48 -75 0 c-71 0 -76 -2 -87 -25 -19
-42 8 -61 88 -63 36 0 68 -2 70 -5 8 -7 -16 -148 -37 -217 -25 -87 -80 -200
-134 -275 -69 -97 -69 -97 -124 -37 -26 29 -55 52 -64 52 -15 0 -47 -36 -47
-53 0 -5 32 -42 72 -83 47 -49 79 -74 94 -74 14 0 39 19 69 52 302 336 350
824 119 1209 -54 91 -177 227 -265 295 -117 90 -278 161 -427 190 -91 17 -304
17 -392 -1z"/>
<path d="M1354 1109 c-139 -139 -188 -182 -210 -185 -33 -3 -64 -36 -64 -69 0
-68 88 -101 129 -49 12 15 21 34 21 43 0 10 81 98 180 196 99 99 180 187 180
196 0 17 -30 49 -46 49 -5 0 -91 -82 -190 -181z"/>
</g>
</svg>
