<?xml version="1.0" standalone="no"?>
<!DOCTYPE svg PUBLIC "-//W3C//DTD SVG 20010904//EN"
 "http://www.w3.org/TR/2001/REC-SVG-20010904/DTD/svg10.dtd">
<svg version="1.0" xmlns="http://www.w3.org/2000/svg"
 width="840.000000pt" height="526.000000pt" viewBox="0 0 840.000000 526.000000"
 preserveAspectRatio="xMidYMid meet">

<g transform="translate(0.000000,526.000000) scale(0.100000,-0.100000)"
fill="#000000" stroke="none">
<path d="M4075 4811 c-228 -80 -814 -350 -1472 -679 -242 -122 -282 -145 -290
-169 -13 -37 -10 -46 101 -236 51 -89 107 -189 124 -222 31 -62 85 -222 97
-287 4 -21 8 -38 10 -38 1 0 64 13 141 29 154 33 402 72 594 95 300 36 410 41
825 40 444 0 587 -10 903 -65 103 -17 415 -89 455 -105 11 -4 17 5 22 34 10
61 66 179 128 272 31 47 129 170 217 274 116 136 160 194 158 210 -4 25 -149
101 -728 382 -664 322 -1083 503 -1165 504 -5 0 -59 -17 -120 -39z m475 -814
c0 -187 -1 -195 -25 -244 -34 -67 -107 -140 -198 -197 -120 -75 -121 -75 -224
-22 -106 55 -184 121 -223 190 l-30 51 0 208 0 207 350 0 350 0 0 -193z"/>
<path d="M3890 3130 c-342 -19 -682 -81 -960 -175 -58 -19 -107 -35 -109 -35
-2 0 13 -18 34 -41 20 -22 34 -46 31 -52 -38 -84 -79 -199 -84 -234 -7 -43
-10 -48 -72 -85 -116 -69 -189 -167 -221 -298 -19 -75 -16 -277 5 -357 47
-186 198 -354 407 -453 l62 -29 37 -90 c129 -313 370 -575 666 -724 147 -74
405 -147 519 -147 64 0 231 35 339 71 370 124 696 432 836 792 28 74 37 87 68
102 127 60 292 202 366 314 75 113 90 167 90 306 0 102 -4 132 -27 200 -42
128 -124 243 -220 309 -52 36 -54 39 -72 114 -10 42 -28 113 -41 157 l-23 79
25 33 24 32 -27 15 c-73 37 -323 99 -554 135 -376 60 -742 80 -1099 61z m-495
-641 c567 -267 1239 -232 1774 93 36 22 70 40 75 41 17 3 36 -122 43 -282 6
-151 7 -155 35 -186 49 -57 153 -66 223 -21 24 16 24 16 36 -27 37 -132 0
-258 -107 -355 -61 -57 -170 -119 -252 -144 -42 -13 -43 -15 -117 -163 -90
-181 -179 -309 -300 -431 -135 -136 -264 -217 -425 -269 -125 -39 -204 -42
-321 -12 -184 48 -334 134 -482 276 -148 142 -272 327 -351 523 l-38 94 -66
23 c-237 82 -351 236 -312 421 7 33 16 60 20 60 4 0 21 -7 36 -15 16 -8 55
-15 86 -15 50 0 62 4 92 30 47 41 53 69 59 245 3 83 11 175 17 206 l12 57 82
-51 c44 -28 126 -72 181 -98z"/>
</g>
</svg>
