<?xml version="1.0" standalone="no"?>
<!DOCTYPE svg PUBLIC "-//W3C//DTD SVG 20010904//EN"
 "http://www.w3.org/TR/2001/REC-SVG-20010904/DTD/svg10.dtd">
<svg version="1.0" xmlns="http://www.w3.org/2000/svg"
 width="341.000000pt" height="318.000000pt" viewBox="0 0 341.000000 318.000000"
 preserveAspectRatio="xMidYMid meet">

<g transform="translate(0.000000,318.000000) scale(0.100000,-0.100000)"
fill="#000000" stroke="none">
<path d="M1444 2993 c-138 -99 -277 -198 -309 -220 -33 -22 -82 -55 -110 -73
-27 -18 -57 -41 -65 -50 -18 -20 -157 -120 -167 -120 -4 0 -17 -9 -29 -21 -12
-11 -183 -136 -380 -278 -245 -176 -362 -266 -368 -283 -12 -35 0 -75 29 -94
36 -23 70 -20 109 10 71 54 66 109 66 -726 0 -478 4 -777 11 -818 20 -125 95
-226 208 -279 l56 -26 1210 0 1210 0 60 32 c66 34 132 99 163 160 40 77 42
130 42 925 0 537 3 768 11 768 6 0 25 -11 42 -25 18 -13 44 -28 57 -33 58 -22
123 54 94 109 -17 34 -1629 1211 -1665 1217 -20 3 -76 -33 -275 -175z m927
-489 l640 -466 -3 -867 c-3 -968 2 -899 -75 -958 l-36 -28 -364 -3 -363 -3 0
523 c0 512 -1 524 -21 557 -35 57 -130 145 -204 188 -170 99 -340 105 -524 18
-95 -45 -232 -177 -250 -240 -7 -27 -11 -206 -11 -542 l0 -503 -318 0 -318 0
-45 29 c-90 56 -84 -10 -87 962 -3 814 -2 856 15 872 60 53 1289 927 1305 927
11 0 308 -210 659 -466z m-566 -1171 c54 -19 129 -68 165 -109 l30 -35 0 -504
0 -505 -330 0 -330 0 0 509 0 508 49 46 c90 84 197 121 321 109 30 -3 73 -11
95 -19z"/>
</g>
</svg>
