<?xml version="1.0" standalone="no"?>
<!DOCTYPE svg PUBLIC "-//W3C//DTD SVG 20010904//EN"
 "http://www.w3.org/TR/2001/REC-SVG-20010904/DTD/svg10.dtd">
<svg version="1.0" xmlns="http://www.w3.org/2000/svg"
 width="215.000000pt" height="187.000000pt" viewBox="0 0 215.000000 187.000000"
 preserveAspectRatio="xMidYMid meet">
<metadata>
Created by potrace 1.16, written by Peter Selinger 2001-2019
</metadata>
<g transform="translate(0.000000,187.000000) scale(0.100000,-0.100000)"
fill="#000000" stroke="none">
<path d="M1425 1659 c-11 -4 -207 -127 -435 -272 -357 -227 -415 -267 -415
-288 0 -14 7 -25 16 -27 8 -1 137 74 285 168 159 101 276 169 286 167 20 -6
58 19 58 37 0 7 50 45 110 85 l111 71 48 -76 49 -76 -23 -34 c-84 -124 16
-293 169 -282 43 3 54 0 69 -19 21 -26 39 -29 56 -9 10 12 7 23 -13 54 -26 42
-49 54 -81 41 -114 -44 -211 89 -140 193 14 20 25 45 25 55 0 28 -117 210
-138 215 -10 3 -27 1 -37 -3z"/>
<path d="M355 1036 c-23 -24 -25 -32 -25 -130 0 -57 3 -112 6 -121 4 -9 31
-27 60 -40 114 -50 113 -187 -2 -231 -25 -9 -49 -25 -54 -35 -6 -10 -10 -65
-10 -122 0 -88 3 -109 19 -128 l19 -24 727 0 727 0 19 24 c16 19 19 40 19 126
0 57 -3 111 -6 120 -4 9 -31 27 -60 40 -58 25 -84 62 -84 115 0 53 26 90 84
115 29 13 56 31 60 40 3 9 6 63 6 120 0 86 -3 107 -19 126 l-19 24 -721 3
-722 2 -24 -24z m1105 -61 c16 -19 34 -19 50 0 10 12 40 15 146 15 l134 0 0
-89 c0 -82 -2 -90 -21 -96 -29 -10 -87 -63 -105 -96 -7 -15 -14 -52 -14 -81 0
-76 42 -139 113 -169 27 -11 27 -13 27 -100 l0 -89 -134 0 c-106 0 -136 3
-146 15 -16 19 -34 19 -50 0 -11 -13 -83 -15 -536 -15 l-524 0 0 89 c0 88 0
89 29 100 15 7 42 27 59 44 71 74 71 180 0 254 -17 17 -44 37 -59 44 -29 11
-29 12 -29 100 l0 89 524 0 c453 0 525 -2 536 -15z"/>
<path d="M241 909 c-27 -19 -41 -37 -41 -52 0 -26 96 -185 122 -201 14 -8 21
-7 34 6 16 15 13 22 -35 98 -28 44 -51 84 -51 87 0 4 12 16 26 28 17 13 23 26
19 37 -11 29 -32 28 -74 -3z"/>
</g>
</svg>
