<?xml version="1.0" standalone="no"?>
<!DOCTYPE svg PUBLIC "-//W3C//DTD SVG 20010904//EN"
 "http://www.w3.org/TR/2001/REC-SVG-20010904/DTD/svg10.dtd">
<svg version="1.0" xmlns="http://www.w3.org/2000/svg"
 width="225.000000pt" height="225.000000pt" viewBox="0 0 225.000000 225.000000"
 preserveAspectRatio="xMidYMid meet">
<metadata>
Created by potrace 1.16, written by Peter Selinger 2001-2019
</metadata>
<g transform="translate(0.000000,225.000000) scale(0.100000,-0.100000)"
fill="#000000" stroke="none">
<path d="M122 2229 c-50 -25 -99 -80 -113 -129 -6 -23 -9 -364 -7 -996 l3
-960 28 -42 c15 -23 46 -54 69 -69 l42 -28 981 0 981 0 42 28 c23 15 54 46 69
69 l28 42 0 981 0 981 -28 42 c-15 23 -46 54 -69 69 l-42 28 -970 3 -971 2
-43 -21z m1963 -144 l25 -24 0 -936 0 -936 -25 -24 -24 -25 -936 0 -936 0 -24
25 -25 24 0 936 0 936 25 24 24 25 936 0 936 0 24 -25z"/>
<path d="M445 1751 c-60 -25 -106 -108 -91 -165 16 -63 102 -123 158 -111 41
9 104 68 118 111 10 30 9 41 -12 82 -37 75 -108 109 -173 83z"/>
<path d="M772 1618 l3 -73 563 -3 562 -2 0 75 0 75 -565 0 -566 0 3 -72z"/>
<path d="M450 1259 c-55 -23 -100 -85 -100 -137 0 -34 33 -86 73 -116 67 -50
168 -11 202 78 16 42 16 46 -3 88 -32 73 -111 113 -172 87z"/>
<path d="M770 1125 l0 -75 565 0 565 0 0 75 0 75 -565 0 -565 0 0 -75z"/>
<path d="M445 766 c-37 -16 -83 -68 -91 -102 -23 -89 81 -193 170 -170 40 10
83 53 101 101 17 42 17 45 -4 87 -36 73 -116 112 -176 84z"/>
<path d="M777 703 c-4 -3 -7 -37 -7 -75 l0 -68 565 0 565 0 0 75 0 75 -558 0
c-307 0 -562 -3 -565 -7z"/>
</g>
</svg>
